<?xml version="1.0" standalone="no"?>
<!DOCTYPE svg PUBLIC "-//W3C//DTD SVG 20010904//EN"
 "http://www.w3.org/TR/2001/REC-SVG-20010904/DTD/svg10.dtd">
<svg version="1.0" xmlns="http://www.w3.org/2000/svg"
 width="1573.000000pt" height="1573.000000pt" viewBox="0 0 1573.000000 1573.000000"
 preserveAspectRatio="xMidYMid meet">
<metadata>
Created by potrace 1.11, written by Peter Selinger 2001-2013
</metadata>
<g transform="translate(0.000000,1573.000000) scale(0.100000,-0.100000)"
fill="#000000" stroke="none">
<path d="M8247 13314 c-1 -1 -285 -5 -632 -9 -657 -7 -799 -9 -1130 -19 -634
-19 -766 -23 -908 -31 -51 -2 -150 -7 -222 -10 -140 -6 -257 -12 -400 -20 -49
-3 -133 -7 -185 -10 -103 -5 -243 -14 -330 -20 -30 -2 -100 -7 -155 -10 -55
-4 -116 -8 -137 -10 -20 -2 -82 -7 -137 -10 -56 -3 -116 -8 -134 -10 -18 -2
-70 -7 -117 -10 -47 -4 -101 -8 -120 -10 -19 -2 -73 -6 -120 -10 -47 -3 -92
-8 -100 -10 -8 -2 -51 -7 -95 -10 -44 -3 -96 -8 -115 -11 -19 -3 -60 -7 -90
-9 -60 -5 -141 -14 -180 -20 -14 -2 -52 -6 -85 -10 -57 -6 -92 -10 -180 -21
-22 -2 -60 -7 -85 -10 -25 -3 -126 -16 -225 -30 -234 -33 -240 -34 -310 -44
-33 -5 -78 -12 -100 -15 -22 -3 -78 -13 -125 -21 -47 -9 -96 -17 -110 -19 -38
-6 -362 -68 -518 -101 -367 -76 -800 -201 -1094 -317 -107 -42 -108 -42 -108
-76 0 -24 4 -32 14 -28 28 11 270 87 290 92 12 2 82 20 156 39 113 28 233 55
370 81 82 16 306 55 370 65 41 6 86 13 100 16 14 2 50 6 80 9 30 3 66 8 80 11
14 2 43 7 64 9 22 3 51 7 65 10 14 2 55 7 91 10 36 3 99 10 140 15 41 5 102
12 135 15 175 15 173 15 325 29 65 7 152 13 270 21 47 3 116 7 155 10 175 12
381 23 565 30 80 4 183 8 230 10 628 27 2197 27 3030 0 63 -2 198 -6 300 -9
102 -3 232 -8 290 -11 58 -3 170 -7 250 -10 80 -3 188 -8 240 -10 52 -2 154
-7 225 -10 327 -14 317 -12 505 -75 96 -32 200 -68 230 -80 30 -12 66 -25 80
-30 153 -51 616 -265 895 -415 391 -210 891 -531 1205 -773 739 -572 1266
-1118 1679 -1742 45 -67 81 -123 81 -125 0 -3 33 -61 93 -160 20 -35 158 -314
180 -365 30 -70 79 -196 97 -250 49 -146 87 -278 97 -330 2 -14 9 -45 15 -70
5 -25 12 -58 14 -75 3 -16 7 -40 9 -52 3 -13 8 -49 11 -80 3 -32 10 -85 14
-118 9 -64 6 -463 -4 -505 -5 -22 -9 -47 -22 -140 -3 -19 -7 -42 -9 -50 -2 -8
-7 -28 -10 -45 -21 -120 -93 -349 -154 -490 -32 -71 -104 -219 -110 -225 -3
-3 -17 -27 -31 -55 -59 -117 -270 -414 -395 -554 -188 -213 -349 -367 -600
-576 -158 -132 -483 -363 -770 -547 -363 -234 -784 -466 -1235 -680 -154 -74
-159 -76 -335 -154 -71 -31 -148 -65 -170 -74 -325 -143 -915 -367 -1370 -518
-334 -111 -781 -251 -960 -300 -38 -11 -171 -47 -295 -82 -124 -34 -233 -63
-242 -65 -9 -2 -79 -20 -155 -40 -138 -37 -474 -121 -516 -129 -12 -2 -29 -7
-37 -10 -8 -3 -26 -7 -40 -10 -14 -2 -72 -16 -130 -29 -58 -14 -183 -43 -278
-63 -96 -21 -169 -40 -164 -42 5 -1 110 17 233 42 123 25 238 47 254 50 17 3
124 26 238 51 114 25 221 47 237 50 17 3 60 12 97 21 38 9 75 17 83 19 8 2 76
17 151 34 75 18 145 33 156 35 11 3 37 9 59 15 34 9 231 57 274 66 81 17 593
150 835 216 39 11 77 22 85 24 8 2 87 24 175 50 88 25 192 55 230 66 39 11 77
22 85 26 8 3 20 7 25 8 43 10 543 173 779 255 287 99 788 293 996 387 30 13
87 38 125 55 295 130 809 391 907 459 14 11 29 19 32 19 31 0 580 374 721 491
289 241 282 234 410 359 189 184 320 331 456 510 74 98 219 313 219 325 0 4 9
19 19 34 27 38 141 268 184 371 55 132 134 385 151 483 3 15 7 35 10 45 10 35
36 230 42 327 11 166 5 435 -12 520 -2 11 -6 40 -9 65 -3 25 -7 56 -10 70 -3
14 -8 41 -11 60 -21 138 -101 417 -175 607 -150 386 -448 884 -738 1233 -25
30 -55 65 -66 78 -11 14 -24 30 -30 36 -5 6 -39 45 -75 86 -197 228 -549 570
-786 765 -27 22 -64 54 -84 71 -27 24 -166 134 -235 186 -5 5 -41 32 -80 61
-113 86 -329 237 -488 342 -179 117 -559 345 -576 345 -6 0 -11 5 -11 10 0 6
-9 10 -19 10 -11 0 -22 4 -25 9 -3 5 -25 19 -48 31 -131 69 -396 201 -478 239
-52 24 -117 54 -145 66 -176 81 -619 247 -790 298 l-50 14 85 -3 c47 -2 121
-6 165 -9 44 -2 125 -7 180 -11 55 -3 127 -7 160 -10 33 -2 107 -6 165 -9 135
-8 126 -6 260 -58 247 -96 546 -234 765 -354 207 -112 230 -126 403 -230 353
-212 806 -529 1122 -786 8 -7 51 -41 95 -77 44 -35 82 -67 85 -70 3 -3 48 -41
100 -85 52 -44 97 -82 100 -85 3 -4 46 -42 95 -85 149 -132 229 -208 480 -460
252 -253 292 -294 420 -440 44 -49 82 -92 85 -95 3 -3 30 -34 60 -70 30 -36
57 -67 60 -70 10 -9 180 -217 221 -272 373 -485 642 -900 858 -1327 194 -383
341 -774 425 -1131 62 -265 81 -441 81 -725 -1 -228 -8 -311 -40 -465 -3 -14
-8 -38 -10 -55 -22 -123 -120 -392 -221 -605 -87 -180 -141 -274 -261 -450
-74 -108 -160 -207 -318 -366 -262 -263 -518 -452 -945 -698 -185 -106 -587
-295 -835 -391 -66 -26 -129 -51 -140 -56 -128 -58 -900 -302 -1055 -333 -14
-3 -52 -13 -85 -22 -33 -9 -67 -17 -75 -19 -8 -2 -73 -17 -145 -35 -122 -29
-238 -55 -295 -66 -14 -3 -65 -14 -113 -25 -48 -10 -105 -22 -125 -25 -20 -3
-45 -7 -54 -10 -10 -3 -30 -7 -45 -10 -16 -2 -48 -9 -73 -14 -50 -11 -489 -85
-560 -95 -25 -3 -58 -8 -75 -12 -16 -3 -41 -7 -55 -8 -14 -2 -95 -13 -180 -25
-176 -24 -185 -26 -260 -34 -30 -4 -86 -11 -125 -16 -38 -5 -95 -12 -125 -15
-30 -3 -68 -7 -85 -9 -16 -2 -68 -7 -115 -11 -47 -3 -92 -8 -100 -10 -14 -3
-41 -6 -215 -20 -38 -4 -81 -8 -95 -10 -14 -2 -68 -6 -120 -10 -52 -3 -115 -8
-140 -10 -25 -2 -83 -7 -130 -10 -47 -3 -110 -8 -140 -10 -168 -12 -339 -21
-800 -40 -642 -27 -1942 -22 -2513 9 -43 2 -76 1 -72 -2 3 -4 20 -7 38 -8 51
-2 258 -15 309 -19 25 -2 93 -6 150 -10 56 -4 126 -8 153 -10 67 -4 260 -16
338 -20 34 -2 107 -6 162 -9 55 -4 132 -9 170 -11 39 -2 131 -7 205 -11 74 -3
164 -7 200 -9 36 -2 133 -7 215 -10 83 -3 186 -8 230 -10 71 -4 192 -8 560
-20 705 -23 1783 -23 2345 0 258 10 392 16 465 20 303 17 411 24 470 30 28 2
84 7 125 10 41 3 98 8 125 11 28 2 74 7 103 9 28 3 76 7 105 10 63 6 145 14
212 21 28 2 73 7 100 10 79 8 153 17 285 35 47 6 96 13 110 14 65 8 118 16
155 22 22 3 47 7 55 8 97 14 257 40 295 48 11 3 40 8 65 11 55 8 67 10 249 46
195 39 272 55 426 91 72 17 138 33 148 35 161 31 900 267 1058 337 19 8 90 38
159 67 290 121 664 324 900 488 391 271 735 615 944 944 l36 57 -2 1573 -3
1573 -70 140 c-78 158 -251 469 -320 575 -25 38 -66 103 -92 143 -142 221
-441 616 -622 823 -20 22 -53 60 -75 85 -215 248 -657 691 -912 913 -43 39
-83 75 -89 81 -17 18 -244 206 -400 331 -420 337 -868 648 -1343 933 -138 83
-254 151 -256 151 -3 0 -31 15 -63 34 -115 67 -252 139 -498 260 -456 225
-742 345 -1195 497 l-235 80 105 -6 c58 -3 125 -8 150 -10 25 -2 83 -7 130
-10 47 -4 105 -8 130 -10 25 -2 83 -6 130 -10 47 -3 101 -8 120 -10 19 -2 73
-7 120 -10 47 -3 101 -8 120 -10 19 -2 71 -7 115 -10 44 -3 95 -7 113 -9 17
-3 71 -7 120 -11 48 -3 98 -8 112 -10 14 -3 54 -7 90 -10 36 -3 83 -7 105 -10
47 -5 128 -13 205 -20 30 -3 73 -7 95 -10 47 -6 115 -13 200 -21 33 -3 71 -7
84 -9 31 -5 93 -13 156 -20 28 -3 61 -7 75 -10 80 -14 100 -14 101 -2 0 6 2
21 4 32 2 11 7 65 10 120 4 55 8 118 10 140 1 22 6 83 9 135 4 52 9 111 11
130 2 19 7 83 11 143 l6 107 -24 1 c-12 0 -135 2 -273 4 -137 2 -410 6 -605
10 -195 4 -440 8 -545 10 -551 10 -2491 24 -2498 19z"/>
<path d="M6655 12800 c4 -19 11 -39 16 -44 4 -5 3 8 -2 30 -14 50 -24 60 -14
14z"/>
<path d="M6671 12708 c8 -31 92 -528 103 -618 3 -25 8 -60 11 -77 11 -68 44
-312 50 -363 1 -14 5 -45 9 -70 3 -25 8 -67 11 -95 3 -27 10 -84 15 -125 5
-41 12 -102 15 -135 3 -33 8 -78 11 -100 10 -86 13 -113 19 -185 3 -41 8 -91
10 -110 7 -74 16 -167 20 -220 2 -30 6 -86 9 -125 6 -79 14 -194 21 -305 3
-41 7 -111 10 -155 27 -442 27 -1407 0 -1769 -2 -28 -7 -91 -10 -141 -4 -49
-8 -106 -10 -125 -2 -19 -6 -71 -10 -115 -3 -44 -8 -87 -10 -95 -2 -8 -7 -49
-10 -90 -8 -84 -11 -110 -19 -160 -7 -41 -15 -100 -22 -150 -12 -93 -17 -125
-40 -260 -14 -80 -36 -197 -49 -260 -13 -63 -26 -126 -29 -140 -2 -14 -25
-117 -51 -230 -56 -248 -122 -546 -129 -580 -14 -76 -79 -331 -111 -435 -211
-700 -506 -1204 -995 -1696 -224 -225 -403 -378 -690 -586 -156 -113 -524
-348 -690 -440 -30 -17 -80 -45 -110 -62 -30 -17 -155 -81 -278 -143 -122 -61
-221 -113 -219 -115 2 -2 17 3 33 11 16 8 155 62 309 121 347 133 501 193 540
210 17 7 89 36 160 65 120 48 286 120 460 200 197 89 551 278 716 380 91 57
284 185 303 201 6 5 47 37 91 70 486 364 885 841 1158 1384 98 196 223 507
258 640 4 17 19 73 34 125 28 100 53 211 61 270 5 42 13 87 18 115 2 11 7 58
11 104 4 47 8 93 10 103 7 36 18 352 18 503 0 148 -11 477 -18 545 -2 19 -6
78 -10 130 -6 103 -13 185 -20 240 -2 19 -7 62 -10 95 -12 131 -16 171 -20
195 -2 14 -7 54 -11 90 -3 36 -7 72 -9 80 -1 8 -6 40 -10 70 -3 30 -8 66 -10
80 -6 39 -36 241 -41 280 -3 19 -9 60 -14 90 -5 30 -12 73 -16 95 -7 49 -41
250 -54 325 -10 56 -14 76 -29 165 -8 42 -73 383 -87 450 -2 11 -6 31 -9 45
-2 14 -16 81 -30 150 -15 69 -29 139 -31 155 -3 17 -9 46 -14 65 -5 19 -12 53
-16 75 -3 22 -8 43 -10 46 -2 3 -6 19 -8 35 -6 33 -8 40 -31 144 -10 41 -19
86 -22 100 -3 14 -21 95 -40 180 -19 85 -36 162 -38 170 -2 8 -24 105 -49 216
-26 111 -48 210 -51 220 -2 10 -18 78 -35 149 -18 72 -34 141 -37 155 -2 14
-15 72 -29 130 -14 58 -36 155 -50 215 -15 61 -37 153 -50 205 -12 52 -25 107
-28 123 -2 15 -7 35 -10 45 -3 9 -7 28 -10 42 -13 78 -49 210 -56 210 -5 0 -5
-14 1 -32z"/>
<path d="M4925 2660 c-27 -7 -27 -8 -5 -8 14 0 36 4 50 8 20 6 21 8 5 8 -11 0
-33 -4 -50 -8z"/>
<path d="M4868 2643 c7 -3 16 -2 19 1 4 3 -2 6 -13 5 -11 0 -14 -3 -6 -6z"/>
<path d="M4828 2633 c7 -3 16 -2 19 1 4 3 -2 6 -13 5 -11 0 -14 -3 -6 -6z"/>
<path d="M3998 2323 c12 -2 30 -2 40 0 9 3 -1 5 -23 4 -22 0 -30 -2 -17 -4z"/>
</g>
</svg>
